<svg id="Layer_1" xmlns="http://www.w3.org/2000/svg" viewBox="0 0 256 256"><style>.st0{fill:#FF5252;} .st1{fill:url(#SVGID_1_);} .st2{opacity:0.2;fill:#3E2723;enable-background:new ;} .st3{opacity:0.2;fill:#FFFFFF;enable-background:new ;} .st4{fill:#F5F5F5;} .st5{opacity:0.4;} .st6{fill:#FFFFFF;} .st7{opacity:0.2;} .st8{fill:#3E2723;} .st9{fill:url(#SVGID_2_);fill-opacity:0.1;} .st10{fill:none;}</style><path class="st0" d="M183.6 128c0 2.2-.1 4.3-.4 6.4-2.9 24.7-22.8 44.4-47.8 47.7-2.4.3-4.9.5-7.4.5-30.7 0-55.6-24.4-55.6-54.6 0-30.2 24.9-54.7 55.6-54.7s55.6 24.5 55.6 54.7z"/><linearGradient id="SVGID_1_" gradientUnits="userSpaceOnUse" x1="107.061" y1="1286.95" x2="168.168" y2="1348.058" gradientTransform="translate(0 -1182)"><stop offset=".006" stop-color="#3E2723" stop-opacity=".2"/><stop offset=".996" stop-color="#3E2723" stop-opacity="0"/></linearGradient><path class="st1" d="M183.5 135c-3.1 23.8-22 42.5-46 46.4l-27.2-26.9h11.6v-21.9h21.3v-10.2h-21.3v-11.6h27v-10.1l34.6 34.3z"/><path class="st2" d="M128 182c-30.6 0-55.5-24.3-55.6-54.3v.3c0 30.2 24.9 54.6 55.6 54.6s55.6-24.4 55.6-54.6v-.3c-.1 30-25 54.3-55.6 54.3z"/><path class="st3" d="M128 74c30.6 0 55.5 24.3 55.6 54.3v-.3c0-30.2-24.9-54.6-55.6-54.6S72.4 97.8 72.4 128v.3c.1-30 25-54.3 55.6-54.3z"/><path class="st4" d="M148.2 110.6v-9.9h-37.9v54.6h11.4V133h21.5v-10h-21.5v-12.4z"/><path class="st5 st6" d="M110.3 100.7h37.9v.6h-37.9zM121.7 123h21.5v.6h-21.5z"/><g class="st7"><path class="st8" d="M110.3 155.5h11.5v.4h-10.9zM121.7 133h21.5v.6h-21.5zM121.7 110.6h26.6v.6h-26.6z"/></g><radialGradient id="SVGID_2_" cx="768.798" cy="1565.954" r="113.649" gradientTransform="matrix(.9836 0 0 .9658 -667.67 -1422.677)" gradientUnits="userSpaceOnUse"><stop offset="0" stop-color="#FFF"/><stop offset=".01" stop-color="#FFF" stop-opacity=".99"/><stop offset="1" stop-color="#FFF" stop-opacity="0"/></radialGradient><ellipse class="st9" cx="128" cy="128" rx="55.6" ry="54.6"/><path class="st10" d="M67.3 68.4h121.4v119.2H67.3z"/></svg>