<?xml version="1.0" encoding="utf-8"?>
<!-- Generator: Adobe Illustrator 18.1.1, SVG Export Plug-In . SVG Version: 6.00 Build 0)  -->
<svg version="1.1" id="Layer_1" xmlns="http://www.w3.org/2000/svg" xmlns:xlink="http://www.w3.org/1999/xlink" x="0px" y="0px"
	 viewBox="0 -360 1440 1440" enable-background="new 0 -360 1440 1440" xml:space="preserve">
<g id="Safety" display="none">
	<g display="inline">
		<rect x="289.6" y="-73.2" opacity="0.4" fill="#FFFFFF" enable-background="new    " width="866" height="866"/>
		<rect x="2.6" y="-360.2" fill="none" width="1440" height="1440"/>
	</g>
	<g display="inline">
		<rect x="-1438" y="-1672.4" fill="none" width="1440" height="1440"/>
	</g>
</g>
<g id="Art">
	<g>
		<g>
			<g>
				<path fill="#262626" d="M592.5,174.8v98.7c0,5.5,4.5,10,10,10h45.7c5.5,0,10-4.5,10-10v-98.7H592.5z"/>
				<path fill="#262626" d="M658.2,36.5c0-5.5-4.5-10-10-10h-45.7c-5.5,0-10,4.5-10,10v138.3h65.7L658.2,36.5L658.2,36.5z"/>
				<circle fill="#848484" cx="625.3" cy="155" r="69.9"/>
				<circle fill="#4DD0E1" cx="625.3" cy="155" r="57.7"/>
			</g>
			<path fill="#FFFFFF" d="M625.3,212.7c25.1,0,46.4-16,54.4-38.4H571C578.9,196.6,600.2,212.7,625.3,212.7z"/>
			<g>
				<circle fill="#1DE9B6" cx="648.1" cy="174.8" r="14"/>
			</g>
		</g>
		<g>
			<g>
				<path fill="#444444" d="M286.1,235.4c0-11.2,9.2-20.4,20.4-20.4H525c11.2,0,20.4,9.2,20.4,20.4v339.3c0,11.2-9.2,20.4-20.4,20.4
					H306.5c-11.2,0-20.4-9.2-20.4-20.4V235.4z"/>
			</g>
			<g>
				<g>
					<defs>
						<rect id="SVGID_1_" x="299.9" y="248.2" width="231.3" height="313.7"/>
					</defs>
					<clipPath id="SVGID_2_">
						<use xlink:href="#SVGID_1_"  overflow="visible"/>
					</clipPath>
					<g clip-path="url(#SVGID_2_)">
						
							<rect x="159.4" y="298.9" transform="matrix(-0.7071 0.7071 -0.7071 -0.7071 739.7664 503.724)" fill="#00B0FF" width="212.3" height="212.3"/>
						
							<rect x="309.5" y="148.8" transform="matrix(-0.7071 0.7071 -0.7071 -0.7071 889.9194 141.2334)" fill="#80D8FF" width="212.3" height="212.3"/>
						
							<rect x="319.7" y="473.5" transform="matrix(-0.7071 0.7071 -0.7071 -0.7071 1077.8066 712.9042)" fill="#0097A7" width="143.2" height="212.3"/>
						
							<rect x="400.7" y="323.3" transform="matrix(-0.7071 0.7071 -0.7071 -0.7071 1227.9633 350.4052)" fill="#FFEB3B" width="281.5" height="212.3"/>
					</g>
				</g>
			</g>
			<circle cx="415.7" cy="231.6" r="3"/>
		</g>
		<g>
			<path fill="#444444" d="M1039,148.8v121.5c0,12.3-10,22.4-22.4,22.4H750.9c-12.3,0-22.4-10-22.4-22.4V148.8
				c0-12.4,10-22.4,22.4-22.4h265.8C1029,126.4,1039,136.4,1039,148.8z"/>
			<g>
				<g>
					<defs>
						<rect id="SVGID_3_" x="752" y="135.6" width="263.6" height="147.9"/>
					</defs>
					<clipPath id="SVGID_4_">
						<use xlink:href="#SVGID_3_"  overflow="visible"/>
					</clipPath>
					<g clip-path="url(#SVGID_4_)">
						
							<rect x="797.3" y="245.4" transform="matrix(0.7071 0.7071 -0.7071 0.7071 493.5107 -527.7189)" fill="#00B0FF" width="173" height="173"/>
						
							<rect x="675" y="123.1" transform="matrix(0.7071 0.7071 -0.7071 0.7071 371.1964 -477.0613)" fill="#80D8FF" width="173" height="173"/>
						
							<rect x="967.7" y="143" transform="matrix(0.7071 0.7071 -0.7071 0.7071 462.7645 -658.2761)" fill="#0097A7" width="116.6" height="173"/>
						
							<rect x="789" y="20.7" transform="matrix(0.7071 0.7071 -0.7071 0.7071 340.4571 -607.6213)" fill="#FFEB3B" width="229.3" height="173"/>
					</g>
				</g>
			</g>
			<circle cx="740.2" cy="209.5" r="3.6"/>
		</g>
		<g>
			<path fill="#444444" d="M1131.9,669.4H591.6V361.7c0-14.9,12.1-27,27-27h486.3c14.9,0,27,12.1,27,27L1131.9,669.4L1131.9,669.4z"
				/>
			<rect x="624.3" y="368.5" fill="#FAFAFA" width="474.8" height="267.1"/>
			<path fill="#999999" d="M1146.6,704.4H576.9c-12.8,0-23.2-10.4-23.2-23.2v-7.3c0-2.4,2-4.4,4.4-4.4h607.4c2.4,0,4.4,2,4.4,4.4
				v7.3C1169.8,694,1159.4,704.4,1146.6,704.4z"/>
			<rect x="624.3" y="368.5" fill="#4DD0E1" width="474.8" height="36.5"/>
			<rect x="624.3" y="599.1" width="474.8" height="36.5"/>
			<g>
				<circle fill="#33AC71" cx="642" cy="617.3" r="4.3"/>
				<circle fill="#999999" cx="661.5" cy="617.3" r="4.3"/>
				<circle fill="#26C6DA" cx="681" cy="617.3" r="4.3"/>
				<circle fill="#4285F4" cx="700.5" cy="617.3" r="4.3"/>
				<circle fill="#F44336" cx="720" cy="617.3" r="4.3"/>
				<circle fill="#FFFFFF" cx="739.5" cy="617.3" r="4.3"/>
			</g>
			<g>
				<circle fill="#1DE9B6" cx="1067.6" cy="405.1" r="16.6"/>
			</g>
			<circle cx="861.8" cy="351.6" r="4.6"/>
		</g>
	</g>
</g>
</svg>
