<svg id="Layer_1" xmlns="http://www.w3.org/2000/svg" viewBox="0 0 4960 4960"><style>.st0{fill:#231F20;} .st1{fill:#FFFFFF;} .st2{fill:#434343;} .st3{fill:#FFD635;} .st4{opacity:0.9;} .st5{fill:#FF5252;}</style><path class="st0" d="M0 0h4960v4960H0z"/><path class="st1" d="M3065.8 1331.3h27.6v2298.1h-27.6zM1866.6 1331.3h27.6v2298.1h-27.6z"/><path class="st2" d="M3166.1 1388.7h39.2v6.9h-15.9v48h15.9v6.9h-39.2v-6.9h15.9v-48h-15.9v-6.9zM3218.8 1406.7h13.8v-18h6.9v18h16.9v6.4h-16.9v28.4c0 1.8.8 2.6 2.4 2.6h12.4v6.4h-14.9c-2 0-3.6-.6-4.9-1.9-1.3-1.3-1.9-2.9-1.9-4.9v-30.5h-13.8v-6.5zM3306.1 1443.1h-1.1c-1.4 2.9-3.4 5.1-5.9 6.5-2.5 1.4-5.1 2.1-7.9 2.1-2.9 0-5.6-.5-8-1.5-2.5-1-4.6-2.4-6.5-4.3-1.9-1.9-3.3-4.3-4.4-7-1.1-2.8-1.6-6-1.6-9.6v-1.4c0-3.6.5-6.8 1.6-9.5 1.1-2.8 2.5-5.1 4.4-7 1.9-1.9 4-3.4 6.5-4.4 2.5-1 5.1-1.5 7.9-1.5 3 0 5.7.7 8.2 2 2.4 1.3 4.4 3.4 5.8 6.1h1.1v-6.9h6.9v34.8c0 1.8.8 2.6 2.4 2.6h2.2v6.4h-4.7c-2 0-3.6-.6-4.9-1.9-1.3-1.3-1.9-2.9-1.9-4.9v-.6zm-14.1 2.1c2.1 0 4-.4 5.7-1.1s3.2-1.9 4.5-3.3c1.2-1.4 2.2-3.1 2.9-5.1.7-2 1.1-4.2 1.1-6.6v-1.1c0-2.4-.4-4.5-1.1-6.5-.7-2-1.7-3.7-3-5.1-1.3-1.4-2.8-2.5-4.5-3.3-1.7-.8-3.6-1.2-5.6-1.2-2.1 0-3.9.4-5.6 1.1-1.7.8-3.2 1.8-4.5 3.2-1.3 1.4-2.3 3.1-3 5s-1.1 4.1-1.1 6.5v1.4c0 5 1.3 8.9 3.9 11.7 2.7 3 6.1 4.4 10.3 4.4zM3328.4 1444.1h15.9V1395h-15.4v-6.4h22.2v55.4h15.9v6.4h-38.7v-6.3zM3383.4 1444.1h15.4V1413H3385v-6.4h20.7v37.4h14.3v6.4h-36.5v-6.3zm12.6-50.4c0-1.7.6-3.2 1.8-4.4 1.2-1.2 2.7-1.8 4.4-1.8 1.7 0 3.2.6 4.4 1.8 1.2 1.2 1.8 2.7 1.8 4.4 0 1.7-.6 3.2-1.8 4.4-1.2 1.2-2.7 1.8-4.4 1.8-1.7 0-3.2-.6-4.4-1.8-1.2-1.3-1.8-2.7-1.8-4.4zM3477.4 1435c-.5 2.4-1.3 4.6-2.4 6.7-1.1 2.1-2.6 3.8-4.4 5.3-1.8 1.5-3.8 2.7-6.2 3.5s-5 1.2-7.9 1.2c-3.1 0-6-.5-8.7-1.5-2.7-1-5.1-2.5-7.2-4.4-2.1-1.9-3.7-4.3-4.9-7-1.2-2.8-1.8-5.9-1.8-9.5v-1.1c0-3.5.6-6.7 1.8-9.5 1.2-2.8 2.8-5.2 4.9-7.2 2.1-1.9 4.5-3.4 7.2-4.5s5.6-1.6 8.7-1.6c2.8 0 5.3.4 7.7 1.2 2.4.8 4.4 2 6.2 3.5 1.8 1.5 3.3 3.3 4.4 5.3s1.9 4.3 2.3 6.7l-6.9 1.6c-.2-1.5-.6-3-1.3-4.5-.7-1.4-1.6-2.7-2.7-3.8-1.1-1.1-2.5-2-4.2-2.6-1.6-.6-3.6-1-5.7-1s-4.1.4-6 1.2c-1.9.8-3.5 1.9-4.9 3.4s-2.5 3.2-3.3 5.2c-.8 2-1.2 4.2-1.2 6.5v1.1c0 2.5.4 4.7 1.2 6.7.8 2 1.9 3.6 3.3 5s3.1 2.4 4.9 3.1c1.9.7 3.9 1.1 6.1 1.1 2.2 0 4.1-.3 5.7-1 1.6-.7 3-1.6 4.1-2.6 1.1-1.1 2.1-2.3 2.7-3.8.7-1.4 1.1-2.9 1.4-4.4l7.1 1.7zM1964.5 1443.6h5.3v-48h-5.3v-6.9h25c2.9 0 5.5.4 7.8 1.2 2.3.8 4.2 1.9 5.7 3.4 1.6 1.4 2.7 3.1 3.5 5.1.8 2 1.2 4.1 1.2 6.4v1.1c0 1.7-.3 3.3-.8 4.7-.5 1.4-1.3 2.7-2.2 3.8s-2 2.1-3.3 2.9c-1.3.8-2.6 1.4-4.1 1.8v1.1c2.9.8 5.4 2.4 7.4 4.7 2 2.3 3 5.2 3 8.5v1.1c0 2.3-.4 4.4-1.2 6.4-.8 2-2 3.7-3.5 5.1-1.6 1.4-3.5 2.6-5.7 3.4-2.3.8-4.9 1.2-7.8 1.2h-25v-7zm12.7-27.5h12c3.5 0 6.3-.9 8.4-2.7 2.1-1.8 3.1-4.3 3.1-7.5v-.5c0-3-1.1-5.4-3.3-7.1-2.2-1.7-5-2.6-8.5-2.6h-11.7v20.4zm0 27.5h11.7c3.5 0 6.3-.9 8.5-2.6 2.2-1.7 3.3-4.1 3.3-7.2v-.5c0-3.2-1-5.7-3.1-7.5-2.1-1.9-4.9-2.8-8.4-2.8h-12v20.6zM2062.5 1429.1c0 3.6-.6 6.9-1.8 9.7-1.2 2.8-2.8 5.2-4.8 7.1-2 1.9-4.3 3.4-7 4.4-2.7 1-5.5 1.5-8.3 1.5-2.9 0-5.7-.5-8.4-1.5-2.6-1-5-2.5-7-4.4-2-1.9-3.6-4.3-4.8-7.1-1.2-2.8-1.8-6-1.8-9.7v-1.1c0-3.6.6-6.8 1.8-9.6 1.2-2.8 2.8-5.2 4.9-7.1 2-1.9 4.4-3.4 7-4.4 2.7-1 5.4-1.5 8.3-1.5 2.9 0 5.6.5 8.3 1.5 2.6 1 5 2.5 7 4.4s3.6 4.3 4.9 7.1c1.2 2.8 1.8 6 1.8 9.6v1.1zm-22 16.1c2.1 0 4.1-.4 5.9-1.1 1.8-.7 3.4-1.8 4.7-3.2 1.4-1.4 2.4-3.1 3.2-5.1.8-2 1.1-4.2 1.1-6.7v-1.1c0-2.4-.4-4.5-1.1-6.5-.8-2-1.8-3.7-3.2-5.1-1.4-1.4-2.9-2.5-4.8-3.3-1.8-.8-3.8-1.2-5.8-1.2-2.1 0-4 .4-5.8 1.2-1.8.8-3.4 1.9-4.8 3.3s-2.4 3.1-3.2 5.1c-.8 2-1.1 4.1-1.1 6.5v1.1c0 2.5.4 4.7 1.1 6.7.8 2 1.8 3.7 3.2 5.1 1.4 1.4 2.9 2.5 4.7 3.2 1.8.7 3.8 1.1 5.9 1.1zM2075.2 1444.1h15.9V1395h-15.4v-6.4h22.2v55.4h15.9v6.4h-38.7v-6.3zM2163.1 1443.8h-1.1c-.7 1.4-1.6 2.5-2.7 3.5s-2.3 1.8-3.5 2.5c-1.3.6-2.6 1.1-4 1.5-1.4.3-2.8.5-4.1.5-2.9 0-5.7-.5-8.2-1.5-2.5-1-4.8-2.4-6.7-4.3s-3.4-4.2-4.5-7-1.6-6-1.6-9.6v-1.4c0-3.5.6-6.7 1.7-9.5s2.6-5.1 4.5-7.1c1.9-1.9 4.1-3.4 6.6-4.4 2.5-1 5.2-1.5 8-1.5 3 0 5.8.7 8.4 2 2.6 1.3 4.6 3.4 6 6.1h1.1v-24.9h6.9v61.8h-6.9v-6.7zm-14.7 1.4c2.1 0 4-.4 5.7-1.1 1.8-.8 3.3-1.9 4.6-3.3 1.3-1.4 2.4-3.1 3.1-5.1.8-2 1.1-4.2 1.1-6.6v-1.1c0-2.4-.4-4.5-1.1-6.5-.8-2-1.8-3.7-3.1-5.1-1.3-1.4-2.9-2.5-4.7-3.3-1.8-.8-3.7-1.2-5.7-1.2-2.1 0-4 .4-5.8 1.1s-3.4 1.9-4.7 3.3c-1.3 1.4-2.4 3.1-3.1 5s-1.1 4.1-1.1 6.4v1.4c0 2.5.4 4.7 1.1 6.6.7 1.9 1.8 3.6 3.1 5s2.9 2.4 4.6 3.2c2 .9 3.9 1.3 6 1.3zM2237 1388.7h39.2v6.9h-15.9v48h15.9v6.9H2237v-6.9h15.9v-48H2237v-6.9zM2289.7 1406.7h13.8v-18h6.9v18h16.9v6.4h-16.9v28.4c0 1.8.8 2.6 2.4 2.6h12.4v6.4h-14.9c-2 0-3.6-.6-4.9-1.9-1.3-1.3-1.9-2.9-1.9-4.9v-30.5h-13.8v-6.5zM2377 1443.1h-1.1c-1.4 2.9-3.4 5.1-5.9 6.5-2.5 1.4-5.1 2.1-7.9 2.1-2.9 0-5.6-.5-8-1.5-2.5-1-4.6-2.4-6.5-4.3-1.9-1.9-3.3-4.3-4.4-7-1.1-2.8-1.6-6-1.6-9.6v-1.4c0-3.6.5-6.8 1.6-9.5 1.1-2.8 2.5-5.1 4.4-7 1.9-1.9 4-3.4 6.5-4.4 2.5-1 5.1-1.5 7.9-1.5 3 0 5.7.7 8.2 2 2.4 1.3 4.4 3.4 5.8 6.1h1.1v-6.9h6.9v34.8c0 1.8.8 2.6 2.4 2.6h2.2v6.4h-4.7c-2 0-3.6-.6-4.9-1.9-1.3-1.3-1.9-2.9-1.9-4.9v-.6zm-14.1 2.1c2.1 0 4-.4 5.7-1.1s3.2-1.9 4.5-3.3c1.2-1.4 2.2-3.1 2.9-5.1.7-2 1.1-4.2 1.1-6.6v-1.1c0-2.4-.4-4.5-1.1-6.5-.7-2-1.7-3.7-3-5.1-1.3-1.4-2.8-2.5-4.5-3.3-1.7-.8-3.6-1.2-5.6-1.2-2.1 0-3.9.4-5.6 1.1-1.7.8-3.2 1.8-4.5 3.2-1.3 1.4-2.3 3.1-3 5-.7 2-1.1 4.1-1.1 6.5v1.4c0 5 1.3 8.9 3.9 11.7 2.7 3 6.1 4.4 10.3 4.4zM2399.3 1444.1h15.9V1395h-15.4v-6.4h22.2v55.4h15.9v6.4h-38.7v-6.3zM2454.3 1444.1h15.4V1413h-13.8v-6.4h20.7v37.4h14.3v6.4h-36.5v-6.3zm12.6-50.4c0-1.7.6-3.2 1.8-4.4 1.2-1.2 2.7-1.8 4.4-1.8 1.7 0 3.2.6 4.4 1.8 1.2 1.2 1.8 2.7 1.8 4.4 0 1.7-.6 3.2-1.8 4.4-1.2 1.2-2.7 1.8-4.4 1.8-1.7 0-3.2-.6-4.4-1.8-1.2-1.3-1.8-2.7-1.8-4.4zM2548.3 1435c-.5 2.4-1.3 4.6-2.4 6.7-1.1 2.1-2.6 3.8-4.4 5.3-1.8 1.5-3.8 2.7-6.2 3.5s-5 1.2-7.9 1.2c-3.1 0-6-.5-8.7-1.5-2.7-1-5.1-2.5-7.2-4.4-2.1-1.9-3.7-4.3-4.9-7-1.2-2.8-1.8-5.9-1.8-9.5v-1.1c0-3.5.6-6.7 1.8-9.5 1.2-2.8 2.8-5.2 4.9-7.2 2.1-1.9 4.5-3.4 7.2-4.5s5.6-1.6 8.7-1.6c2.8 0 5.3.4 7.7 1.2 2.4.8 4.4 2 6.2 3.5 1.8 1.5 3.3 3.3 4.4 5.3s1.9 4.3 2.3 6.7l-6.9 1.6c-.2-1.5-.6-3-1.3-4.5-.7-1.4-1.6-2.7-2.7-3.8-1.1-1.1-2.5-2-4.2-2.6-1.6-.6-3.6-1-5.7-1s-4.1.4-6 1.2c-1.9.8-3.5 1.9-4.9 3.4s-2.5 3.2-3.3 5.2c-.8 2-1.2 4.2-1.2 6.5v1.1c0 2.5.4 4.7 1.2 6.7.8 2 1.9 3.6 3.3 5s3.1 2.4 4.9 3.1c1.9.7 3.9 1.1 6.1 1.1 2.2 0 4.1-.3 5.7-1 1.6-.7 3-1.6 4.1-2.6 1.1-1.1 2.1-2.3 2.7-3.8.7-1.4 1.1-2.9 1.4-4.4l7.1 1.7zM816.4 1450.5H809v-20.7c0-1.5-.4-2.7-1.1-3.5-.7-.8-1.9-1.2-3.7-1.2H785v25.4h-7.4v-61.8h22.1c3.2 0 5.9.5 8.3 1.4 2.4.9 4.3 2.1 5.9 3.7 1.6 1.5 2.7 3.3 3.5 5.3.8 2 1.2 4.2 1.2 6.4v2.6c0 2.3-.6 4.6-1.9 6.9-1.3 2.3-3.2 4.1-5.9 5.3v1.1c1.8.3 3.1 1 4.1 2.1 1 1.1 1.5 2.7 1.5 4.8v22.2zm-31.4-32.3h13.8c4.2 0 7.3-.9 9.3-2.7 2-1.8 3-4.4 3-7.9v-1.6c0-3.1-1-5.6-3-7.5-2-1.9-5.1-2.9-9.3-2.9H785v22.6zM836.8 1430.7c.2 4.4 1.5 7.9 4.1 10.5 2.5 2.6 6.1 4 10.6 4 2.1 0 3.9-.2 5.4-.7 1.5-.5 2.8-1.1 3.9-1.9s2-1.8 2.6-2.9c.7-1.1 1.2-2.3 1.6-3.5l6.5 1.8c-1.2 4.1-3.5 7.4-6.8 9.9-3.3 2.6-7.8 3.8-13.5 3.8-3.1 0-6-.5-8.6-1.6-2.6-1.1-4.9-2.6-6.8-4.6-1.9-2-3.4-4.4-4.4-7.1-1.1-2.8-1.6-5.8-1.6-9.2v-2.1c0-3.1.5-5.9 1.6-8.6 1.1-2.6 2.6-4.9 4.5-6.8 1.9-1.9 4.2-3.4 6.8-4.5 2.6-1.1 5.5-1.6 8.5-1.6 3.6 0 6.7.7 9.3 2 2.6 1.3 4.8 3 6.4 4.9 1.7 1.9 2.9 4.1 3.7 6.4.8 2.3 1.2 4.4 1.2 6.4v5.6h-35zm14.6-18.7c-1.9 0-3.8.3-5.4.9-1.7.6-3.1 1.5-4.4 2.6-1.3 1.1-2.3 2.4-3.1 3.9-.8 1.5-1.3 3.1-1.5 4.9h28.2c-.1-1.9-.6-3.6-1.4-5.1-.8-1.5-1.8-2.8-3.1-3.9s-2.7-1.9-4.3-2.5c-1.6-.5-3.3-.8-5-.8zM919 1443.8h-1c-1.4 2.6-3.3 4.6-5.8 6-2.4 1.3-5.1 2-8 2-2.9 0-5.7-.5-8.3-1.5-2.6-1-4.9-2.4-6.8-4.3-2-1.9-3.5-4.2-4.7-7-1.1-2.8-1.7-6-1.7-9.6v-1.4c0-3.5.6-6.7 1.8-9.5 1.2-2.8 2.7-5.1 4.7-7.1 1.9-1.9 4.2-3.4 6.8-4.4 2.6-1 5.3-1.5 8.1-1.5 3.2 0 6 .7 8.3 2.1 2.4 1.4 4.3 3.4 5.6 6h1.1v-6.9h6.9v54.5c0 2-.6 3.6-1.9 4.9-1.3 1.3-2.9 1.9-4.9 1.9h-28.5v-6.4h26c1.6 0 2.4-.9 2.4-2.7v-15.1zm-14.6 1.4c2.1 0 4-.4 5.7-1.1 1.8-.8 3.3-1.9 4.6-3.3 1.3-1.4 2.4-3.1 3.1-5.1.8-2 1.1-4.2 1.1-6.6v-1.1c0-2.4-.4-4.5-1.1-6.5-.8-2-1.8-3.7-3.1-5.1-1.3-1.4-2.9-2.5-4.7-3.3-1.8-.8-3.7-1.2-5.7-1.2-2.1 0-4 .4-5.8 1.1-1.8.8-3.4 1.9-4.7 3.3-1.3 1.4-2.4 3.1-3.1 5-.7 1.9-1.1 4.1-1.1 6.4v1.4c0 2.5.4 4.7 1.1 6.6.7 1.9 1.8 3.6 3.1 5s2.9 2.4 4.6 3.2c1.9.9 3.9 1.3 6 1.3zM971 1406.7h6.9v43.8H971v-7.9h-1c-1.4 2.8-3.3 5.1-5.6 6.7-2.3 1.6-5.2 2.5-8.7 2.5-2.4 0-4.6-.4-6.7-1.2-2-.8-3.8-2-5.2-3.6-1.4-1.6-2.6-3.6-3.4-5.9-.8-2.4-1.2-5.1-1.2-8.2v-26.1h6.9v25.2c0 4.6.9 7.9 2.8 10.1 1.9 2.1 4.8 3.2 8.6 3.2 4.2 0 7.5-1.4 9.8-4.3 2.4-2.9 3.6-6.7 3.6-11.4v-22.9zM993.8 1444.1h15.9V1395h-15.4v-6.4h22.2v55.4h15.9v6.4h-38.7v-6.3zM1079.6 1443.1h-1.1c-1.4 2.9-3.4 5.1-5.9 6.5-2.5 1.4-5.1 2.1-7.9 2.1-2.9 0-5.6-.5-8-1.5-2.5-1-4.6-2.4-6.5-4.3-1.9-1.9-3.3-4.3-4.4-7-1.1-2.8-1.6-6-1.6-9.6v-1.4c0-3.6.5-6.8 1.6-9.5 1.1-2.8 2.5-5.1 4.4-7 1.9-1.9 4-3.4 6.5-4.4 2.5-1 5.1-1.5 7.9-1.5 3 0 5.7.7 8.2 2 2.4 1.3 4.4 3.4 5.8 6.1h1.1v-6.9h6.9v34.8c0 1.8.8 2.6 2.4 2.6h2.2v6.4h-4.7c-2 0-3.6-.6-4.9-1.9-1.3-1.3-1.9-2.9-1.9-4.9v-.6zm-14.1 2.1c2.1 0 4-.4 5.7-1.1 1.7-.8 3.2-1.9 4.5-3.3 1.2-1.4 2.2-3.1 2.9-5.1.7-2 1.1-4.2 1.1-6.6v-1.1c0-2.4-.4-4.5-1.1-6.5-.7-2-1.7-3.7-3-5.1-1.3-1.4-2.8-2.5-4.5-3.3-1.7-.8-3.6-1.2-5.6-1.2-2.1 0-3.9.4-5.6 1.1-1.7.8-3.2 1.8-4.5 3.2-1.3 1.4-2.2 3.1-3 5-.7 2-1.1 4.1-1.1 6.5v1.4c0 5 1.3 8.9 3.9 11.7 2.7 3 6.1 4.4 10.3 4.4zM1099.4 1406.7h15.9v5.8h1.1c1.1-2.4 2.7-4.2 4.8-5.3s4.4-1.7 7.1-1.7c4.4 0 8 1.4 10.7 4.3 2.7 2.9 4.1 7.1 4.3 12.6l-7.2 1.1c0-4.1-1-7-2.9-8.8-1.9-1.8-4.3-2.7-7.1-2.7-1.8 0-3.4.4-4.7 1.1-1.3.7-2.4 1.7-3.3 2.9-.9 1.2-1.5 2.7-1.9 4.3-.4 1.6-.6 3.4-.6 5.3v18.5h11.1v6.4h-28.1v-6.4h10.1V1413h-9v-6.3z"/><g><path class="st1" d="M4282.8 3652.9H677.2V1307.1h3605.6v2345.8zm-3578-27.5h3550.5V1334.6H704.8v2290.8z"/></g><g><path class="st1" d="M691 1816.6h3578v27.6H691z"/></g><g><path class="st1" d="M691 3189.9h3578v27.6H691z"/></g><g><path class="st3" d="M691 2200.4h3578v23.9H691z"/></g><g><path class="st1" d="M691 2200.4h3578v27.6H691z"/></g><g class="st4"><path class="st5" d="M3539.4 3073.5c-143.6 0-221.2-89.3-221.2-260 0-244.5 133.9-469.6 374.5-469.6 151.3 0 223.1 106.7 223.1 265.8.1 262-166.8 463.8-376.4 463.8m293-34.9c-33 197.9 186.3 207.6 269.7 143.6l87.3-66-81.5-114.5-69.9 50.5c-25.2 19.4-60.2 7.8-52.4-25.2l170.8-799.4H4005l-31 151.4h-23.3c-27.2-116.4-128.1-178.5-260-178.5-345.4 0-531.7 306.6-531.7 632.6 0 229 126.1 384.2 333.7 384.2 120.3 0 236.7-42.7 316.3-178.5h23.4z"/></g><g><path class="st2" d="M3328.1 3375.7l14.3 14.3-17.1 17.1-12.2 4.9 1.2 3 10.9-4.2h74.7v20.1h-74.7l-10.9-4.2-1.2 3 12.2 4.9 17.1 17.1-14.3 14.3-27.7-27.5v-35.3l27.7-27.5zM3584.8 3394c0-4.1-1.5-7.7-4.5-10.7-3-3-7.7-4.5-14-4.5s-11.4 1.9-15.1 5.6c-3.7 3.7-5.6 8.6-5.6 14.6v15.9h3.2c2-4.1 5.2-7.4 9.7-10 4.5-2.5 9.5-3.8 15.2-3.8 5.1 0 9.8.9 14.3 2.7 4.5 1.8 8.4 4.4 11.7 7.8 3.3 3.4 5.9 7.4 7.8 12.3 1.9 4.8 2.8 10.3 2.8 16.4v2.1c0 6.2-1 12-3.1 17.2-2.1 5.2-5 9.7-8.8 13.5-3.8 3.8-8.4 6.7-13.9 8.8s-11.5 3.2-18.2 3.2c-6.1 0-11.9-1-17.2-3-5.4-2-10-4.8-13.9-8.4-3.9-3.6-7.1-7.9-9.4-12.9-2.3-5-3.4-10.5-3.4-16.5v-45c0-6.5 1.2-12.4 3.5-17.7 2.4-5.3 5.5-9.8 9.5-13.5 4-3.7 8.6-6.6 13.9-8.6 5.2-2 10.8-3 16.7-3 5.9 0 11.4.9 16.5 2.6 5.1 1.7 9.6 4.2 13.4 7.4 3.8 3.2 6.8 7.2 9 11.8 2.2 4.7 3.3 9.9 3.3 15.6h-23.4zm-18.5 68.9c6 0 10.9-1.8 14.8-5.4 3.9-3.6 5.8-8.4 5.8-14.4s-1.9-10.8-5.8-14.4c-3.9-3.6-8.8-5.4-14.8-5.4s-10.9 1.8-14.8 5.4c-3.9 3.6-5.8 8.4-5.8 14.4s1.9 10.8 5.8 14.4c3.8 3.6 8.8 5.4 14.8 5.4zM3666.9 3460.4v-89.7h-3.2l-11.7 42.4h-22.2v-2.1l14.8-51.9h45.5v101.3h30.7v22.2h-89v-22.2h35.1zM3826.6 3460.4v22.2h-86.9v-24.4c0-6.5 1-12 2.9-16.6 1.9-4.6 4.7-8.5 8.3-11.7 3.6-3.2 7.9-5.8 13-7.9 5.1-2.1 10.8-3.8 17.1-5.2 4.7-1.1 8.6-2.3 11.6-3.6 3-1.4 5.4-2.9 7.1-4.6 1.8-1.7 3-3.6 3.6-5.7.6-2.1 1-4.4 1-7 0-4.9-1.8-9.1-5.4-12.4-3.6-3.3-8.6-4.9-14.9-4.9-6.7 0-12.1 2-16.1 6.1-4 4.1-6 9.7-6 16.9v7.8h-23.3v-9.9c0-5.8 1-11.3 3.1-16.5 2.1-5.2 5-9.8 8.8-13.8 3.8-3.9 8.5-7.1 14-9.4s11.8-3.4 18.7-3.4c7.4 0 13.9 1.1 19.4 3.3 5.5 2.2 10.1 5 13.9 8.6 3.7 3.5 6.5 7.6 8.3 12.3 1.8 4.7 2.7 9.4 2.7 14.4v2.1c0 10.4-2.9 19-8.7 25.8-5.8 6.8-15.3 11.8-28.5 14.8-5.5 1.3-10.1 2.6-13.7 4-3.6 1.4-6.4 2.9-8.4 4.5s-3.4 3.4-4.1 5.4c-.8 1.9-1.1 4.1-1.1 6.6v2.1h63.6zM4048.2 3403.2v35.3l-27.7 27.5-14.3-14.3 17.1-17.1 12.2-4.9-1.2-3-10.9 4.2h-74.7v-20.1h74.7l10.9 4.2 1.2-3-12.2-4.9-17.1-17.1 14.3-14.3 27.7 27.5zM2133.1 3375.7l14.3 14.3-17.1 17.1-12.2 4.9 1.2 3 10.9-4.2h74.7v20.1h-74.7l-10.9-4.2-1.2 3 12.2 4.9 17.1 17.1-14.3 14.3-27.7-27.5v-35.3l27.7-27.5zM2389.8 3394c0-4.1-1.5-7.7-4.5-10.7-3-3-7.7-4.5-14-4.5s-11.4 1.9-15.1 5.6c-3.7 3.7-5.6 8.6-5.6 14.6v15.9h3.2c2-4.1 5.2-7.4 9.7-10 4.5-2.5 9.5-3.8 15.2-3.8 5.1 0 9.8.9 14.3 2.7 4.5 1.8 8.4 4.4 11.7 7.8 3.3 3.4 5.9 7.4 7.8 12.3 1.9 4.8 2.8 10.3 2.8 16.4v2.1c0 6.2-1 12-3.1 17.2-2.1 5.2-5 9.7-8.8 13.5-3.8 3.8-8.4 6.7-13.9 8.8s-11.5 3.2-18.2 3.2c-6.1 0-11.9-1-17.2-3-5.4-2-10-4.8-13.9-8.4-3.9-3.6-7.1-7.9-9.4-12.9-2.3-5-3.4-10.5-3.4-16.5v-45c0-6.5 1.2-12.4 3.5-17.7 2.4-5.3 5.5-9.8 9.5-13.5 4-3.7 8.6-6.6 13.9-8.6 5.2-2 10.8-3 16.7-3 5.9 0 11.4.9 16.5 2.6 5.1 1.7 9.6 4.2 13.4 7.4 3.8 3.2 6.8 7.2 9 11.8 2.2 4.7 3.3 9.9 3.3 15.6h-23.4zm-18.6 68.9c6 0 10.9-1.8 14.8-5.4 3.9-3.6 5.8-8.4 5.8-14.4s-1.9-10.8-5.8-14.4c-3.9-3.6-8.8-5.4-14.8-5.4s-10.9 1.8-14.8 5.4c-3.9 3.6-5.8 8.4-5.8 14.4s1.9 10.8 5.8 14.4c3.9 3.6 8.8 5.4 14.8 5.4zM2471.8 3460.4v-89.7h-3.2l-11.7 42.4h-22.2v-2.1l14.8-51.9h45.5v101.3h30.7v22.2h-89v-22.2h35.1zM2631.6 3460.4v22.2h-86.9v-24.4c0-6.5 1-12 2.9-16.6 1.9-4.6 4.7-8.5 8.3-11.7 3.6-3.2 7.9-5.8 13-7.9 5.1-2.1 10.8-3.8 17.1-5.2 4.7-1.1 8.6-2.3 11.6-3.6 3-1.4 5.4-2.9 7.1-4.6 1.8-1.7 3-3.6 3.6-5.7.6-2.1 1-4.4 1-7 0-4.9-1.8-9.1-5.4-12.4-3.6-3.3-8.6-4.9-14.9-4.9-6.7 0-12.1 2-16.1 6.1-4 4.1-6 9.7-6 16.9v7.8h-23.3v-9.9c0-5.8 1-11.3 3.1-16.5 2.1-5.2 5-9.8 8.8-13.8 3.8-3.9 8.5-7.1 14-9.4 5.5-2.3 11.8-3.4 18.7-3.4 7.4 0 13.9 1.1 19.4 3.3 5.5 2.2 10.1 5 13.9 8.6 3.7 3.5 6.5 7.6 8.3 12.3 1.8 4.7 2.7 9.4 2.7 14.4v2.1c0 10.4-2.9 19-8.7 25.8-5.8 6.8-15.3 11.8-28.5 14.8-5.5 1.3-10.1 2.6-13.7 4-3.6 1.4-6.4 2.9-8.4 4.5s-3.4 3.4-4.1 5.4c-.8 1.9-1.1 4.1-1.1 6.6v2.1h63.6zM2853.1 3403.2v35.3l-27.7 27.5-14.3-14.3 17.1-17.1 12.2-4.9-1.2-3-10.9 4.2h-74.7v-20.1h74.7l10.9 4.2 1.2-3-12.2-4.9-17.1-17.1 14.3-14.3 27.7 27.5zM938 3375.7l14.3 14.3-17.1 17.1-12.2 4.9 1.2 3 10.9-4.2h74.7v20.1h-74.7l-10.9-4.2-1.2 3 12.2 4.9 17.1 17.1L938 3466l-27.7-27.5v-35.3l27.7-27.5zM1194.7 3394c0-4.1-1.5-7.7-4.5-10.7s-7.7-4.5-14-4.5-11.4 1.9-15.1 5.6c-3.7 3.7-5.6 8.6-5.6 14.6v15.9h3.2c2-4.1 5.2-7.4 9.7-10s9.5-3.8 15.2-3.8c5.1 0 9.8.9 14.3 2.7 4.5 1.8 8.4 4.4 11.7 7.8 3.3 3.4 5.9 7.4 7.8 12.3 1.9 4.8 2.8 10.3 2.8 16.4v2.1c0 6.2-1 12-3.1 17.2-2.1 5.2-5 9.7-8.8 13.5-3.8 3.8-8.4 6.7-13.9 8.8-5.4 2.1-11.5 3.2-18.2 3.2-6.1 0-11.9-1-17.2-3-5.4-2-10-4.8-13.9-8.4-3.9-3.6-7.1-7.9-9.4-12.9-2.3-5-3.4-10.5-3.4-16.5v-45c0-6.5 1.2-12.4 3.5-17.7 2.4-5.3 5.5-9.8 9.5-13.5 4-3.7 8.6-6.6 13.9-8.6 5.2-2 10.8-3 16.7-3 5.9 0 11.4.9 16.5 2.6 5.1 1.7 9.6 4.2 13.4 7.4 3.8 3.2 6.8 7.2 9 11.8 2.2 4.7 3.3 9.9 3.3 15.6h-23.4zm-18.5 68.9c6 0 10.9-1.8 14.8-5.4 3.9-3.6 5.8-8.4 5.8-14.4s-1.9-10.8-5.8-14.4c-3.9-3.6-8.8-5.4-14.8-5.4s-10.9 1.8-14.8 5.4c-3.9 3.6-5.8 8.4-5.8 14.4s1.9 10.8 5.8 14.4c3.8 3.6 8.8 5.4 14.8 5.4zM1276.8 3460.4v-89.7h-3.2l-11.7 42.4h-22.2v-2.1l14.8-51.9h45.5v101.3h30.7v22.2h-89v-22.2h35.1zM1436.5 3460.4v22.2h-86.9v-24.4c0-6.5 1-12 2.9-16.6 1.9-4.6 4.7-8.5 8.3-11.7 3.6-3.2 7.9-5.8 13-7.9s10.8-3.8 17.1-5.2c4.7-1.1 8.6-2.3 11.6-3.6 3-1.4 5.4-2.9 7.1-4.6 1.8-1.7 3-3.6 3.6-5.7.6-2.1 1-4.4 1-7 0-4.9-1.8-9.1-5.4-12.4-3.6-3.3-8.6-4.9-14.9-4.9-6.7 0-12.1 2-16.1 6.1-4 4.1-6 9.7-6 16.9v7.8h-23.3v-9.9c0-5.8 1-11.3 3.1-16.5 2.1-5.2 5-9.8 8.8-13.8 3.8-3.9 8.5-7.1 14-9.4 5.5-2.3 11.8-3.4 18.7-3.4 7.4 0 13.9 1.1 19.4 3.3 5.5 2.2 10.1 5 13.9 8.6 3.7 3.5 6.5 7.6 8.3 12.3 1.8 4.7 2.7 9.4 2.7 14.4v2.1c0 10.4-2.9 19-8.7 25.8-5.8 6.8-15.3 11.8-28.5 14.8-5.5 1.3-10.1 2.6-13.7 4-3.6 1.4-6.4 2.9-8.4 4.5s-3.4 3.4-4.1 5.4c-.8 1.9-1.1 4.1-1.1 6.6v2.1h63.6zM1658.1 3403.2v35.3l-27.7 27.5-14.3-14.3 17.1-17.1 12.2-4.9-1.2-3-10.9 4.2h-74.7v-20.1h74.7l10.9 4.2 1.2-3-12.2-4.9-17.1-17.1 14.3-14.3 27.7 27.5z"/></g><g class="st4"><path class="st5" d="M1940.2 3191.5h867.9V2949h-567.7l65.4-311.8h573.5v-242.5h-521.5l65.4-307.9h596.6v-242.5h-798.7l-280.9 1324.1z"/></g><g class="st4"><path class="st5" d="M1347.3 1474.7l-127 227.1h138.6l161.7-227.1h-173.3zm-488.9 519.6h346.4v1047H858.4v150.1H1713v-150.1h-346.4v-1047H1713v-150.1H858.4v150.1z"/></g></svg>